<svg width="55" height="43" viewBox="0 0 55 43" fill="none" xmlns="http://www.w3.org/2000/svg">
<path d="M50 12.5C46.25 12.5 44.25 16 45.25 18.75L36.25 27.75C35.5 27.5 34.5 27.5 33.75 27.75L27.25 21.25C28.25 18.5 26.25 15 22.5 15C19 15 16.75 18.5 17.75 21.25L6.25 32.5C3.5 31.75 0 33.75 0 37.5C0 40.25 2.25 42.5 5 42.5C8.5 42.5 10.75 39 9.75 36.25L21 24.75C21.75 25 22.75 25 23.5 24.75L30 31.25C29.25 33.75 31.25 37.5 35 37.5C38.75 37.5 40.75 34 39.75 31.25L48.75 22.25C51.5 23 55 21 55 17.5C55 14.75 52.75 12.5 50 12.5Z" fill="#111111"/>
<path d="M35 15L37.25 9.75L42.5 7.5L37.25 5.25L35 0L32.75 5.25L27.5 7.5L32.75 9.75L35 15ZM6.25 20L7.5 15L12.5 13.75L7.5 12.5L6.25 7.5L5 12.5L0 13.75L5 15L6.25 20Z" fill="#403DFF"/>
</svg>
