<svg width="24" height="24" viewBox="0 0 24 24" fill="none" xmlns="http://www.w3.org/2000/svg">
<g clip-path="url(#clip0_55_1721)">
<path d="M21.9687 11L21.9687 9C21.9687 4 19.9688 2 14.9688 2L8.96875 2C3.96875 2 1.96875 4 1.96875 9L1.96875 15C1.96875 20 3.96875 22 8.96875 22L10.9687 22" stroke="#999999" stroke-width="1.5" stroke-linecap="round" stroke-linejoin="round"/>
<path d="M6 7H6.01999H16.53" stroke="#999999" stroke-width="1.5" stroke-linecap="round" stroke-linejoin="round"/>
<path d="M6 10H6.00759H10" stroke="#999999" stroke-width="1.5" stroke-linecap="round" stroke-linejoin="round"/>
<path d="M15 20C17.7614 20 20 17.7614 20 15C20 12.2386 17.7614 10 15 10C12.2386 10 10 12.2386 10 15C10 17.7614 12.2386 20 15 20Z" stroke="#999999" stroke-width="1.5" stroke-linecap="round" stroke-linejoin="round"/>
<path d="M21 21L19 19" stroke="#999999" stroke-width="1.5" stroke-linecap="round" stroke-linejoin="round"/>
</g>
<defs>
<clipPath id="clip0_55_1721">
<rect width="24" height="24" fill="white"/>
</clipPath>
</defs>
</svg>
