<svg width="32" height="32" viewBox="0 0 32 32" fill="none" xmlns="http://www.w3.org/2000/svg">
<circle cx="16" cy="16" r="16" fill="black" fill-opacity="0.6"/>
<path d="M25 9.97998C21.67 9.64998 18.32 9.47998 14.98 9.47998C13 9.47998 11.02 9.57998 9.04 9.77998L7 9.97998" stroke="white" stroke-width="1.5" stroke-linecap="round" stroke-linejoin="round"/>
<path d="M12.5 8.97L12.72 7.66C12.88 6.71 13 6 14.69 6H17.31C19 6 19.13 6.75 19.28 7.67L19.5 8.97" stroke="white" stroke-width="1.5" stroke-linecap="round" stroke-linejoin="round"/>
<path d="M23 10L22.3358 22.5288C22.2234 24.4821 22.1314 26 19.2803 26H12.7197C9.86861 26 9.77664 24.4821 9.66423 22.5288L9 10" stroke="white" stroke-width="1.5" stroke-linecap="round" stroke-linejoin="round"/>
<path d="M13 15L13.2712 21.3189" stroke="white" stroke-width="1.5" stroke-linecap="round" stroke-linejoin="round"/>
<path d="M19.2715 15L19.0003 21.3189" stroke="white" stroke-width="1.5" stroke-linecap="round" stroke-linejoin="round"/>
<path d="M16 14L16 22" stroke="white" stroke-width="1.5" stroke-linecap="round" stroke-linejoin="round"/>
</svg>
