<svg width="30" height="30" viewBox="0 0 30 30" fill="none" xmlns="http://www.w3.org/2000/svg">
<g clip-path="url(#clip0_594_37613)">
<circle cx="15" cy="15" r="15" fill="#C4CC74"/>
<path d="M21.6663 13.3346C21.6663 17.4955 17.0505 21.8288 15.5005 23.1671C15.3561 23.2757 15.1803 23.3344 14.9997 23.3344C14.819 23.3344 14.6432 23.2757 14.4988 23.1671C12.9488 21.8288 8.33301 17.4955 8.33301 13.3346C8.33301 11.5665 9.03539 9.87083 10.2856 8.62059C11.5359 7.37035 13.2316 6.66797 14.9997 6.66797C16.7678 6.66797 18.4635 7.37035 19.7137 8.62059C20.964 9.87083 21.6663 11.5665 21.6663 13.3346Z" stroke="white" stroke-width="1.66667" stroke-linecap="round" stroke-linejoin="round"/>
<path d="M15 15.8359C16.3807 15.8359 17.5 14.7166 17.5 13.3359C17.5 11.9552 16.3807 10.8359 15 10.8359C13.6193 10.8359 12.5 11.9552 12.5 13.3359C12.5 14.7166 13.6193 15.8359 15 15.8359Z" stroke="white" stroke-width="1.66667" stroke-linecap="round" stroke-linejoin="round"/>
</g>
<defs>
<clipPath id="clip0_594_37613">
<rect width="30" height="30" fill="white"/>
</clipPath>
</defs>
</svg>
