<svg width="38" height="38" viewBox="0 0 38 38" fill="none" xmlns="http://www.w3.org/2000/svg">
<circle cx="19" cy="19" r="19" fill="#1A1A1A"/>
<path d="M27.5 18.3V14.04C27.5 10.01 26.56 9 22.78 9H15.22C11.44 9 10.5 10.01 10.5 14.04V25.3C10.5 27.96 11.96 28.59 13.73 26.69L13.74 26.68C14.56 25.81 15.81 25.88 16.52 26.83L17.53 28.18" stroke="#C6D8F6" stroke-linecap="round" stroke-linejoin="round"/>
<path d="M26 24.3942V22.8394C26 21.3686 25.6682 21 24.3341 21H21.6659C20.3318 21 20 21.3686 20 22.8394V26.9489C20 27.9197 20.5153 28.1496 21.14 27.4562L21.1435 27.4526C21.4329 27.135 21.8741 27.1606 22.1247 27.5073L22.4812 28" stroke="#C6D8F6" stroke-linecap="round" stroke-linejoin="round"/>
<path d="M15 14H23" stroke="#C6D8F6" stroke-linecap="round" stroke-linejoin="round"/>
<path d="M16 18H22" stroke="#C6D8F6" stroke-linecap="round" stroke-linejoin="round"/>
</svg>
