<svg width="18" height="18" viewBox="0 0 18 18" fill="none" xmlns="http://www.w3.org/2000/svg">
<path d="M1.71484 5.83547V13.133C1.71484 14.558 2.72734 15.143 3.95734 14.438L5.71984 13.433C6.10234 13.2155 6.73984 13.193 7.13734 13.3955L11.0748 15.368C11.4723 15.563 12.1098 15.548 12.4923 15.3305L15.7398 13.4705C16.1523 13.2305 16.4973 12.6455 16.4973 12.1655V4.86797C16.4973 3.44297 15.4848 2.85797 14.2548 3.56297L12.4923 4.56797C12.1098 4.78547 11.4723 4.80797 11.0748 4.60547L7.13734 2.64047C6.73984 2.44547 6.10234 2.46047 5.71984 2.67797L2.47234 4.53797C2.05234 4.77797 1.71484 5.36297 1.71484 5.83547Z" stroke="#1A1A1A" stroke-linecap="round" stroke-linejoin="round"/>
<path d="M6.41797 3V12.75" stroke="#1A1A1A" stroke-linecap="round" stroke-linejoin="round"/>
<path d="M11.7969 4.96484V14.9998" stroke="#1A1A1A" stroke-linecap="round" stroke-linejoin="round"/>
</svg>
