<svg width="30" height="30" viewBox="0 0 30 30" fill="none" xmlns="http://www.w3.org/2000/svg">
<path d="M23.0996 4C24.1495 4 25.001 4.82876 25.001 5.85059V24.1494C25.001 25.1712 24.1495 26 23.0996 26H6.90137C5.85145 26 5 25.1712 5 24.1494V5.85059C5 4.82876 5.85145 4 6.90137 4H23.0996ZM8.11133 18.667C7.77391 18.667 7.50015 18.94 7.5 19.2773C7.5 19.6149 7.77382 19.8887 8.11133 19.8887H19.3896C19.7271 19.8886 20.001 19.6148 20.001 19.2773C20.0008 18.94 19.727 18.6671 19.3896 18.667H8.11133ZM8.11133 16.2227C7.77391 16.2227 7.50015 16.4956 7.5 16.833C7.5 17.1705 7.77382 17.4443 8.11133 17.4443H13.1396C13.4769 17.4441 13.75 17.1704 13.75 16.833C13.7499 16.4958 13.4768 16.2229 13.1396 16.2227H8.11133ZM8.11133 13.7783C7.77391 13.7783 7.50015 14.0513 7.5 14.3887C7.5 14.7262 7.77382 15 8.11133 15H21.8896C22.2271 14.9999 22.501 14.7261 22.501 14.3887C22.5008 14.0513 22.227 13.7784 21.8896 13.7783H8.11133ZM8.11133 11.334C7.77391 11.334 7.50015 11.607 7.5 11.9443C7.5 12.2818 7.77382 12.5557 8.11133 12.5557H21.8896C22.2271 12.5556 22.501 12.2818 22.501 11.9443C22.5008 11.607 22.227 11.334 21.8896 11.334H8.11133ZM8.11133 8.88867C7.77382 8.88867 7.5 9.16249 7.5 9.5C7.50012 9.83741 7.77389 10.1113 8.11133 10.1113H19.3896C19.727 10.1112 20.0009 9.83734 20.001 9.5C20.001 9.16256 19.7271 8.88878 19.3896 8.88867H8.11133Z" fill="#7C8083"/>
<path d="M25.9277 18.9814C26.2303 18.6734 26.7228 18.6734 27.0254 18.9814C27.325 19.287 27.3253 19.7805 27.0254 20.0859L20.2158 27.0186C19.9133 27.3266 19.4207 27.3266 19.1182 27.0186L15.9746 23.8193C15.6747 23.514 15.675 23.0204 15.9746 22.7148C16.2772 22.4068 16.7697 22.4068 17.0723 22.7148L19.666 25.3555L25.9277 18.9814Z" fill="#00A068" stroke="white" stroke-width="0.5" stroke-linecap="round" stroke-linejoin="round"/>
</svg>
