<svg width="20" height="20" viewBox="0 0 20 20" fill="none" xmlns="http://www.w3.org/2000/svg">
<path d="M14.166 3.30012C14.166 3.17109 14.166 3.10657 14.2083 3.06925C14.2505 3.03194 14.3134 3.03975 14.4391 3.05538C14.4754 3.0599 14.5113 3.06456 14.5469 3.06934C15.5006 3.19761 16.24 3.4636 16.8184 4.04199C17.3967 4.62038 17.6627 5.35977 17.791 6.31348C17.9177 7.2554 17.917 8.46779 17.917 10.0273V10.8896C17.917 12.4491 17.9176 13.6607 17.791 14.6025C17.6628 15.5563 17.3967 16.2956 16.8184 16.874C16.24 17.4524 15.5005 17.7184 14.5469 17.8467C13.6049 17.9733 12.3926 17.9727 10.833 17.9727H9.16699C7.60742 17.9727 6.39505 17.9733 5.45312 17.8467C4.49945 17.7184 3.76002 17.4524 3.18164 16.874C2.60333 16.2956 2.33722 15.5563 2.20898 14.6025C2.08236 13.6607 2.08301 12.4491 2.08301 10.8896V10.0273C2.08301 8.46779 2.08235 7.2554 2.20898 6.31348C2.33726 5.35977 2.60326 4.62038 3.18164 4.04199C3.76003 3.4636 4.49942 3.19761 5.45312 3.06934C5.48835 3.0646 5.52394 3.05997 5.55992 3.05548C5.68563 3.03981 5.74848 3.03197 5.79075 3.06928C5.83301 3.1066 5.83301 3.17112 5.83301 3.30014V3.63861C5.83301 3.74505 5.83301 3.79827 5.80181 3.83369C5.77062 3.86911 5.71668 3.87597 5.6088 3.88971C5.59394 3.8916 5.57916 3.89353 5.56445 3.89551C4.70305 4.01134 4.16831 4.23305 3.77051 4.63086C3.37271 5.02867 3.15099 5.56341 3.03516 6.4248C2.91772 7.2983 2.91699 8.44423 2.91699 10.0273V10.8896C2.91699 12.4725 2.91776 13.6178 3.03516 14.4912C3.15096 15.3525 3.37283 15.8873 3.77051 16.2852C4.16832 16.683 4.70302 16.9057 5.56445 17.0215C6.43795 17.1389 7.58387 17.1396 9.16699 17.1396H10.833C12.4161 17.1396 13.5621 17.1389 14.4355 17.0215C15.297 16.9057 15.8317 16.683 16.2295 16.2852C16.6272 15.8874 16.849 15.3525 16.9648 14.4912C17.0822 13.6178 17.083 12.4725 17.083 10.8896V10.0273C17.083 8.44423 17.0823 7.2983 16.9648 6.4248C16.849 5.56341 16.6273 5.02867 16.2295 4.63086C15.8317 4.23305 15.2969 4.01134 14.4355 3.89551C14.4205 3.89349 14.4054 3.89152 14.3903 3.88959C14.2824 3.87591 14.2284 3.86907 14.1972 3.83364C14.166 3.79822 14.166 3.74501 14.166 3.63859V3.30012ZM11.4167 2.94377C11.5342 2.94397 11.5929 2.94407 11.6295 2.98067C11.666 3.01727 11.666 3.07605 11.666 3.19361V3.52758C11.666 3.64572 11.666 3.7048 11.6293 3.74142C11.5926 3.77804 11.5335 3.77795 11.4153 3.77775C11.228 3.77744 11.034 3.77734 10.833 3.77734H9.16699C8.96562 3.77734 8.77131 3.77744 8.58375 3.77775C8.4655 3.77795 8.40638 3.77804 8.36969 3.74142C8.33301 3.7048 8.33301 3.64572 8.33301 3.52758V3.19361C8.33301 3.07605 8.33301 3.01726 8.36955 2.98067C8.40608 2.94407 8.46481 2.94397 8.58228 2.94377C8.77155 2.94346 8.9664 2.94336 9.16699 2.94336H10.833C11.0333 2.94336 11.2278 2.94346 11.4167 2.94377Z" fill="#555555"/>
<path d="M7.083 2.08325L7.08301 5.41659" stroke="#555555" stroke-width="0.833333" stroke-linecap="round"/>
<path d="M12.917 2.08325L12.917 5.41659" stroke="#555555" stroke-width="0.833333" stroke-linecap="round"/>
<circle cx="6.24967" cy="8.74992" r="0.416667" fill="#555555"/>
<circle cx="8.74967" cy="8.74992" r="0.416667" fill="#555555"/>
<circle cx="11.2497" cy="8.74992" r="0.416667" fill="#555555"/>
<circle cx="13.7497" cy="8.74992" r="0.416667" fill="#555555"/>
<circle cx="6.24967" cy="11.2499" r="0.416667" fill="#555555"/>
<circle cx="8.74967" cy="11.2499" r="0.416667" fill="#555555"/>
<circle cx="11.2497" cy="11.2499" r="0.416667" fill="#555555"/>
<circle cx="13.7497" cy="11.2499" r="0.416667" fill="#555555"/>
<circle cx="6.24967" cy="13.7499" r="0.416667" fill="#555555"/>
<circle cx="8.74967" cy="13.7499" r="0.416667" fill="#555555"/>
<circle cx="11.2497" cy="13.7499" r="0.416667" fill="#555555"/>
<circle cx="13.7497" cy="13.7499" r="0.416667" fill="#555555"/>
</svg>
