<svg width="24" height="24" viewBox="0 0 24 24" fill="none" xmlns="http://www.w3.org/2000/svg">
<path d="M22 9.00002V15C22 17.5 21.5 19.25 20.38 20.38L14 14L21.73 6.27002C21.91 7.06002 22 7.96002 22 9.00002Z" stroke="#ffffff" stroke-linecap="round" stroke-linejoin="round"/>
<path d="M21.73 6.27L6.26999 21.73C3.25999 21.04 2 18.96 2 15V9C2 4 4 2 9 2H15C18.96 2 21.04 3.26 21.73 6.27Z" stroke="#ffffff" stroke-linecap="round" stroke-linejoin="round"/>
<path d="M20.3795 20.38C19.2495 21.5 17.4995 22 14.9995 22H8.99954C7.95954 22 7.05953 21.91 6.26953 21.73L13.9995 14L20.3795 20.38Z" stroke="#ffffff" stroke-linecap="round" stroke-linejoin="round"/>
<path d="M6.24124 7.97997C6.92124 5.04997 11.3212 5.04997 12.0012 7.97997C12.3912 9.69997 11.3112 11.16 10.3612 12.06C9.67123 12.72 8.58125 12.72 7.88125 12.06C6.93125 11.16 5.84124 9.69997 6.24124 7.97997Z" stroke="#ffffff"/>
<path d="M9.09607 8.69995H9.10505" stroke="#ffffff" stroke-width="2" stroke-linecap="round" stroke-linejoin="round"/>
</svg>
