<svg width="90" height="102" viewBox="0 0 90 102" fill="none" xmlns="http://www.w3.org/2000/svg">
<path d="M47.3945 93.8313C60.3732 93.8313 70.8945 92.712 70.8945 91.3313C70.8945 89.9506 60.3732 88.8313 47.3945 88.8313C34.4158 88.8313 23.8945 89.9506 23.8945 91.3313C23.8945 92.712 34.4158 93.8313 47.3945 93.8313Z" fill="black" fill-opacity="0.2"/>
<path d="M62.0835 5.77344L11.8905 12.3644C8.63727 12.7916 6.34631 15.7752 6.7735 19.0284L14.424 77.2899C14.8512 80.5432 17.8348 82.8341 21.088 82.4069L71.281 75.8159C74.5342 75.3888 76.8252 72.4052 76.398 69.1519L68.7475 10.8904C68.3203 7.63721 65.3367 5.34625 62.0835 5.77344Z" fill="black" fill-opacity="0.2"/>
<path d="M72.7047 11.3215H22.0047C18.7186 11.3215 16.0547 13.9854 16.0547 17.2715V76.1215C16.0547 79.4076 18.7186 82.0715 22.0047 82.0715H72.7047C75.9908 82.0715 78.6547 79.4076 78.6547 76.1215V17.2715C78.6547 13.9854 75.9908 11.3215 72.7047 11.3215Z" fill="white" stroke="#777777" stroke-linecap="round" stroke-linejoin="round" stroke-dasharray="2 2"/>
<path d="M23.625 62.8818L33.765 46.3518C33.8648 46.1103 34.0339 45.9039 34.2511 45.7586C34.4683 45.6134 34.7237 45.5358 34.985 45.5358C35.2463 45.5358 35.5017 45.6134 35.7189 45.7586C35.9361 45.9039 36.1052 46.1103 36.205 46.3518L41.955 55.7218C42.0527 55.9641 42.2205 56.1717 42.437 56.3178C42.6535 56.464 42.9088 56.5421 43.17 56.5421C43.4312 56.5421 43.6865 56.464 43.903 56.3178C44.1195 56.1717 44.2873 55.9641 44.385 55.7218L54.225 39.7218C54.3227 39.4796 54.4905 39.272 54.707 39.1259C54.9235 38.9797 55.1788 38.9016 55.44 38.9016C55.7012 38.9016 55.9565 38.9797 56.173 39.1259C56.3895 39.272 56.5573 39.4796 56.655 39.7218L71.095 63.2518L23.625 62.8818Z" fill="black" fill-opacity="0.2"/>
<path d="M43.8423 44.1312C45.6041 44.1312 47.0323 42.703 47.0323 40.9412C47.0323 39.1794 45.6041 37.7512 43.8423 37.7512C42.0806 37.7512 40.6523 39.1794 40.6523 40.9412C40.6523 42.703 42.0806 44.1312 43.8423 44.1312Z" fill="black" fill-opacity="0.2"/>
<path fill-rule="evenodd" clip-rule="evenodd" d="M80.0481 31.8464H70.1365C69.2017 31.8464 69.2017 31.8533 68.7543 32.1841C68.306 32.5149 63.1914 36 63.1914 36V31.8464H62.9519C60.2135 31.8464 58 29.7826 58 27.2123V13.654C58 11.0837 60.2189 9 62.9519 9H80.0481C82.7804 9 85 11.0837 85 13.654V27.2123C85 29.7826 82.7804 31.8464 80.0481 31.8464Z" fill="#777777"/>
<path fill-rule="evenodd" clip-rule="evenodd" d="M65.3129 18.3945C66.4669 18.3945 67.4004 19.3272 67.4004 20.482C67.4004 21.6368 66.4669 22.5695 65.3129 22.5695C64.158 22.5695 63.2246 21.6368 63.2246 20.482C63.2246 19.3272 64.158 18.3945 65.3129 18.3945Z" fill="white"/>
<path fill-rule="evenodd" clip-rule="evenodd" d="M71.5758 18.3945C72.7306 18.3945 73.6633 19.3272 73.6633 20.482C73.6633 21.6368 72.7306 22.5695 71.5758 22.5695C70.4209 22.5695 69.4883 21.6368 69.4883 20.482C69.4883 19.3272 70.4209 18.3945 71.5758 18.3945Z" fill="white"/>
<path fill-rule="evenodd" clip-rule="evenodd" d="M77.8385 18.3945C78.9933 18.3945 79.9259 19.3272 79.9259 20.482C79.9259 21.6368 78.9933 22.5695 77.8385 22.5695C76.6836 22.5695 75.751 21.6368 75.751 20.482C75.751 19.3272 76.6836 18.3945 77.8385 18.3945Z" fill="white"/>
</svg>
