<svg width="90" height="102" viewBox="0 0 90 102" fill="none" xmlns="http://www.w3.org/2000/svg">
<path d="M47.3945 93.8301C60.3732 93.8301 70.8945 92.7108 70.8945 91.3301C70.8945 89.9494 60.3732 88.8301 47.3945 88.8301C34.4158 88.8301 23.8945 89.9494 23.8945 91.3301C23.8945 92.7108 34.4158 93.8301 47.3945 93.8301Z" fill="black" fill-opacity="0.2"/>
<path d="M62.0835 5.77222L11.8905 12.3632C8.63727 12.7904 6.34631 15.774 6.7735 19.0272L14.424 77.2887C14.8512 80.542 17.8348 82.8329 21.088 82.4057L71.281 75.8147C74.5342 75.3875 76.8252 72.404 76.398 69.1507L68.7475 10.8892C68.3203 7.63599 65.3367 5.34503 62.0835 5.77222Z" fill="black" fill-opacity="0.2"/>
<path d="M72.7047 11.3203H22.0047C18.7186 11.3203 16.0547 13.9842 16.0547 17.2703V76.1203C16.0547 79.4064 18.7186 82.0703 22.0047 82.0703H72.7047C75.9908 82.0703 78.6547 79.4064 78.6547 76.1203V17.2703C78.6547 13.9842 75.9908 11.3203 72.7047 11.3203Z" fill="white" stroke="#777777" stroke-linecap="round" stroke-linejoin="round" stroke-dasharray="2 2"/>
<path d="M23.625 62.8806L33.765 46.3506C33.8648 46.1091 34.0339 45.9027 34.2511 45.7574C34.4683 45.6122 34.7237 45.5346 34.985 45.5346C35.2463 45.5346 35.5017 45.6122 35.7189 45.7574C35.9361 45.9027 36.1052 46.1091 36.205 46.3506L41.955 55.7206C42.0527 55.9629 42.2205 56.1704 42.437 56.3166C42.6535 56.4628 42.9088 56.5408 43.17 56.5408C43.4312 56.5408 43.6865 56.4628 43.903 56.3166C44.1195 56.1704 44.2873 55.9629 44.385 55.7206L54.225 39.7206C54.3227 39.4783 54.4905 39.2708 54.707 39.1246C54.9235 38.9785 55.1788 38.9004 55.44 38.9004C55.7012 38.9004 55.9565 38.9785 56.173 39.1246C56.3895 39.2708 56.5573 39.4783 56.655 39.7206L71.095 63.2506L23.625 62.8806Z" fill="black" fill-opacity="0.2"/>
<path d="M43.8423 44.13C45.6041 44.13 47.0323 42.7018 47.0323 40.94C47.0323 39.1782 45.6041 37.75 43.8423 37.75C42.0806 37.75 40.6523 39.1782 40.6523 40.94C40.6523 42.7018 42.0806 44.13 43.8423 44.13Z" fill="black" fill-opacity="0.2"/>
<path fill-rule="evenodd" clip-rule="evenodd" d="M80.0481 31.8464H70.1365C69.2017 31.8464 69.2017 31.8533 68.7543 32.1841C68.306 32.5149 63.1914 36 63.1914 36V31.8464H62.9519C60.2135 31.8464 58 29.7826 58 27.2123V13.654C58 11.0837 60.2189 9 62.9519 9H80.0481C82.7804 9 85 11.0837 85 13.654V27.2123C85 29.7826 82.7804 31.8464 80.0481 31.8464Z" fill="#777777"/>
<path fill-rule="evenodd" clip-rule="evenodd" d="M65.3129 18.3945C66.4669 18.3945 67.4004 19.3272 67.4004 20.482C67.4004 21.6368 66.4669 22.5695 65.3129 22.5695C64.158 22.5695 63.2246 21.6368 63.2246 20.482C63.2246 19.3272 64.158 18.3945 65.3129 18.3945Z" fill="white"/>
<path fill-rule="evenodd" clip-rule="evenodd" d="M71.5758 18.3945C72.7306 18.3945 73.6633 19.3272 73.6633 20.482C73.6633 21.6368 72.7306 22.5695 71.5758 22.5695C70.4209 22.5695 69.4883 21.6368 69.4883 20.482C69.4883 19.3272 70.4209 18.3945 71.5758 18.3945Z" fill="white"/>
<path fill-rule="evenodd" clip-rule="evenodd" d="M77.8385 18.3945C78.9933 18.3945 79.9259 19.3272 79.9259 20.482C79.9259 21.6368 78.9933 22.5695 77.8385 22.5695C76.6836 22.5695 75.751 21.6368 75.751 20.482C75.751 19.3272 76.6836 18.3945 77.8385 18.3945Z" fill="white"/>
</svg>
