<svg width="185" height="17" viewBox="0 0 185 17" fill="none" xmlns="http://www.w3.org/2000/svg">
<rect x="28" width="17" height="17" fill="#EDE8E8"/>
<rect x="28.5" y="0.5" width="16" height="16" stroke="black" stroke-opacity="0.05"/>
<rect x="50" width="17" height="17" fill="#C6D8F6"/>
<rect x="50.5" y="0.5" width="16" height="16" stroke="black" stroke-opacity="0.05"/>
<rect x="72" width="17" height="17" fill="#81AFFC"/>
<rect x="72.5" y="0.5" width="16" height="16" stroke="black" stroke-opacity="0.05"/>
<rect x="94" width="17" height="17" fill="#FFD8BD"/>
<rect x="94.5" y="0.5" width="16" height="16" stroke="black" stroke-opacity="0.05"/>
<rect x="116" width="17" height="17" fill="#F9974C"/>
<rect x="116.5" y="0.5" width="16" height="16" stroke="black" stroke-opacity="0.05"/>
<rect x="138" width="17" height="17" fill="#DB5838"/>
<rect x="138.5" y="0.5" width="16" height="16" stroke="black" stroke-opacity="0.05"/>
<path d="M0.799805 11V4.63672H2.11816V9.91016H4.86035V11H0.799805ZM7.83105 11.0967C6.38965 11.0967 5.49316 10.1035 5.49316 8.62695C5.49316 7.15039 6.38965 6.16602 7.83105 6.16602C9.27246 6.16602 10.1777 7.15039 10.1777 8.62695C10.1777 10.1035 9.27246 11.0967 7.83105 11.0967ZM7.83984 10.0859C8.50781 10.0859 8.85059 9.46191 8.85059 8.62695C8.85059 7.7832 8.50781 7.15918 7.83984 7.15918C7.16309 7.15918 6.81152 7.7832 6.81152 8.62695C6.81152 9.46191 7.16309 10.0859 7.83984 10.0859ZM11.8125 11L10.5117 6.22754H11.8301L12.5771 9.45312H12.6211L13.4033 6.22754H14.6953L15.4863 9.43555H15.5303L16.2686 6.22754H17.5869L16.2773 11H14.9062L14.0801 7.96777H14.0186L13.1924 11H11.8125Z" fill="#777777"/>
<path d="M165.706 12V5.63672H167.024V8.27344H169.784V5.63672H171.111V12H169.784V9.36328H167.024V12H165.706ZM172.157 12V7.22754H173.458V12H172.157ZM172.807 6.60352C172.412 6.60352 172.095 6.30469 172.095 5.94434C172.095 5.5752 172.412 5.27637 172.807 5.27637C173.194 5.27637 173.51 5.5752 173.51 5.94434C173.51 6.30469 173.194 6.60352 172.807 6.60352ZM176.613 13.8896C175.294 13.8896 174.486 13.3008 174.407 12.3955H175.69C175.76 12.7734 176.121 12.9492 176.639 12.9492C177.246 12.9492 177.65 12.6943 177.65 12.0264V11.1562H177.588C177.413 11.543 176.991 11.9297 176.226 11.9297C175.145 11.9297 174.284 11.1738 174.284 9.58301C174.284 7.96582 175.171 7.16602 176.226 7.16602C177.026 7.16602 177.413 7.64062 177.588 8.02734H177.641V7.22754H178.933V12.0527C178.933 13.2656 177.966 13.8896 176.613 13.8896ZM176.63 10.9541C177.281 10.9541 177.65 10.4443 177.65 9.60059C177.65 8.74805 177.281 8.20312 176.63 8.20312C175.971 8.20312 175.62 8.77441 175.62 9.60059C175.62 10.4268 175.971 10.9541 176.63 10.9541ZM181.245 9.24023V12H179.944V5.63672H181.209V8.0625H181.262C181.482 7.50879 181.965 7.16602 182.686 7.16602C183.679 7.16602 184.338 7.83398 184.338 8.95898V12H183.038V9.1875C183.038 8.59863 182.721 8.24707 182.176 8.24707C181.631 8.24707 181.245 8.60742 181.245 9.24023Z" fill="#A55831"/>
</svg>
