<svg width="185" height="19" viewBox="0 0 185 19" fill="none" xmlns="http://www.w3.org/2000/svg">
<rect x="23" y="1" width="137" height="17" fill="url(#paint0_linear_456_33971)"/>
<path d="M0.799805 12V5.63672H2.11816V10.9102H4.86035V12H0.799805ZM7.83105 12.0967C6.38965 12.0967 5.49316 11.1035 5.49316 9.62695C5.49316 8.15039 6.38965 7.16602 7.83105 7.16602C9.27246 7.16602 10.1777 8.15039 10.1777 9.62695C10.1777 11.1035 9.27246 12.0967 7.83105 12.0967ZM7.83984 11.0859C8.50781 11.0859 8.85059 10.4619 8.85059 9.62695C8.85059 8.7832 8.50781 8.15918 7.83984 8.15918C7.16309 8.15918 6.81152 8.7832 6.81152 9.62695C6.81152 10.4619 7.16309 11.0859 7.83984 11.0859ZM11.8125 12L10.5117 7.22754H11.8301L12.5771 10.4531H12.6211L13.4033 7.22754H14.6953L15.4863 10.4355H15.5303L16.2686 7.22754H17.5869L16.2773 12H14.9062L14.0801 8.96777H14.0186L13.1924 12H11.8125Z" fill="#777777"/>
<rect x="24" width="19" height="4" rx="2" transform="rotate(90 24 0)" fill="white"/>
<rect x="163" width="19" height="4" rx="2" transform="rotate(90 163 0)" fill="#A55831"/>
<path d="M165.706 13V6.63672H167.024V9.27344H169.784V6.63672H171.111V13H169.784V10.3633H167.024V13H165.706ZM172.157 13V8.22754H173.458V13H172.157ZM172.807 7.60352C172.412 7.60352 172.095 7.30469 172.095 6.94434C172.095 6.5752 172.412 6.27637 172.807 6.27637C173.194 6.27637 173.51 6.5752 173.51 6.94434C173.51 7.30469 173.194 7.60352 172.807 7.60352ZM176.613 14.8896C175.294 14.8896 174.486 14.3008 174.407 13.3955H175.69C175.76 13.7734 176.121 13.9492 176.639 13.9492C177.246 13.9492 177.65 13.6943 177.65 13.0264V12.1562H177.588C177.413 12.543 176.991 12.9297 176.226 12.9297C175.145 12.9297 174.284 12.1738 174.284 10.583C174.284 8.96582 175.171 8.16602 176.226 8.16602C177.026 8.16602 177.413 8.64062 177.588 9.02734H177.641V8.22754H178.933V13.0527C178.933 14.2656 177.966 14.8896 176.613 14.8896ZM176.63 11.9541C177.281 11.9541 177.65 11.4443 177.65 10.6006C177.65 9.74805 177.281 9.20312 176.63 9.20312C175.971 9.20312 175.62 9.77441 175.62 10.6006C175.62 11.4268 175.971 11.9541 176.63 11.9541ZM181.245 10.2402V13H179.944V6.63672H181.209V9.0625H181.262C181.482 8.50879 181.965 8.16602 182.686 8.16602C183.679 8.16602 184.338 8.83398 184.338 9.95898V13H183.038V10.1875C183.038 9.59863 182.721 9.24707 182.176 9.24707C181.631 9.24707 181.245 9.60742 181.245 10.2402Z" fill="#A55831"/>
<defs>
<linearGradient id="paint0_linear_456_33971" x1="23" y1="10" x2="160" y2="10" gradientUnits="userSpaceOnUse">
<stop stop-color="white"/>
<stop offset="0.24519" stop-color="#FFDCC2"/>
<stop offset="0.5" stop-color="#FAA25F"/>
<stop offset="0.75" stop-color="#E76400"/>
<stop offset="1" stop-color="#A55831"/>
</linearGradient>
</defs>
</svg>
