<svg width="250" height="250" viewBox="0 0 250 250" fill="none" xmlns="http://www.w3.org/2000/svg">
<circle cx="125" cy="125" r="105" fill="black" fill-opacity="0.2"/>
<path fill-rule="evenodd" clip-rule="evenodd" d="M164.011 182H85.9869C80.4952 182 76 177.674 76 172.386V65.6121C76 60.3243 80.4952 56 85.9869 56H164.011C169.505 56 174 60.3243 174 65.6121V172.386C174 177.674 169.505 182 164.011 182Z" fill="white" stroke="#B2B2BF" stroke-dasharray="2 2"/>
<path d="M98.9463 122.139C98.3688 122.318 97.7318 122.305 97.1166 122.023C95.8713 121.411 95.3619 119.94 95.9157 118.664C101.408 107.289 111.492 98.6399 123.572 94.8907C129.673 92.9973 135.947 92.3933 142.086 93.0606C142.594 93.0635 144.629 93.828 144.467 95.771C144.262 98.2174 141.382 98.091 141.382 98.091C135.971 97.5254 130.446 98.0657 125.075 99.7329C114.342 103.064 105.394 110.782 100.471 120.93C100.156 121.448 99.572 121.945 98.9463 122.139Z" fill="#999999"/>
<path d="M109.821 131.09C109.295 131.394 108.668 131.521 108.045 131.353C106.667 131.093 105.811 129.712 106.067 128.333C107.846 119.977 113.093 112.667 120.501 108.391C127.82 104.165 136.679 103.213 144.755 105.762C146.095 106.16 146.82 107.618 146.426 108.96C146.031 110.301 144.578 111.023 143.238 110.624C136.503 108.474 129.132 109.271 123.039 112.788C116.859 116.356 112.466 122.41 111.011 129.406C110.852 130.143 110.435 130.736 109.821 131.09Z" fill="#999999"/>
<path d="M121.713 133.153C121.235 133.429 120.649 133.519 120.027 133.444C118.631 133.134 117.668 131.766 117.842 130.363C118.545 125.056 121.508 120.554 125.984 117.969C130.33 115.46 135.64 115.124 140.507 117.029C141.853 117.555 142.583 119.119 142.127 120.437C141.698 121.801 140.226 122.465 138.923 121.914C135.474 120.556 131.729 120.794 128.644 122.576C125.515 124.382 123.419 127.577 122.924 131.337C122.812 132.146 122.321 132.802 121.713 133.153Z" fill="#999999"/>
<circle cx="134.5" cy="132.5" r="4.5" fill="#999999"/>
<path d="M162.304 137C164.613 133 170.387 133 172.696 137L196.512 178.25C198.821 182.25 195.935 187.25 191.316 187.25H143.684C139.065 187.25 136.179 182.25 138.488 178.25L162.304 137Z" fill="#5F5F5F"/>
<path d="M164.854 174.638C164.854 174.212 164.937 173.79 165.1 173.397C165.263 173.004 165.502 172.646 165.803 172.345C166.104 172.044 166.462 171.805 166.855 171.642C167.249 171.479 167.67 171.395 168.096 171.395C168.522 171.395 168.944 171.479 169.337 171.642C169.73 171.805 170.088 172.044 170.389 172.345C170.69 172.646 170.929 173.004 171.092 173.397C171.255 173.79 171.339 174.212 171.339 174.638C171.339 175.498 170.997 176.323 170.389 176.931C169.781 177.539 168.956 177.88 168.096 177.88C167.236 177.88 166.411 177.539 165.803 176.931C165.195 176.323 164.854 175.498 164.854 174.638ZM165.171 155.166C165.128 154.757 165.171 154.344 165.298 153.952C165.425 153.561 165.633 153.201 165.908 152.895C166.184 152.589 166.52 152.345 166.896 152.178C167.271 152.01 167.678 151.924 168.09 151.924C168.501 151.924 168.908 152.01 169.283 152.178C169.659 152.345 169.996 152.589 170.271 152.895C170.546 153.201 170.754 153.561 170.881 153.952C171.008 154.344 171.051 154.757 171.008 155.166L169.873 166.538C169.827 166.979 169.619 167.387 169.29 167.684C168.96 167.98 168.533 168.145 168.09 168.145C167.646 168.145 167.219 167.98 166.889 167.684C166.56 167.387 166.352 166.979 166.306 166.538L165.171 155.166Z" fill="white"/>
<path fill-rule="evenodd" clip-rule="evenodd" d="M169 197.5C169 199.433 149.3 201 125 201C100.699 201 81 199.433 81 197.5C81 195.568 100.699 194 125 194C149.3 194 169 195.568 169 197.5Z" fill="#5F5F5F" fill-opacity="0.4"/>
</svg>
