<svg width="20" height="22" viewBox="0 0 20 22" fill="none" xmlns="http://www.w3.org/2000/svg">
<path d="M18.0996 0C19.1495 0 20.001 0.828762 20.001 1.85059V20.1494C20.001 21.1712 19.1495 22 18.0996 22H1.90137C0.85145 22 0 21.1712 0 20.1494V1.85059C0 0.828762 0.85145 0 1.90137 0H18.0996ZM3.11133 14.667C2.77391 14.667 2.50015 14.94 2.5 15.2773C2.5 15.6149 2.77382 15.8887 3.11133 15.8887H14.3896C14.7271 15.8886 15.001 15.6148 15.001 15.2773C15.0008 14.94 14.727 14.6671 14.3896 14.667H3.11133ZM3.11133 12.2227C2.77391 12.2227 2.50015 12.4956 2.5 12.833C2.5 13.1705 2.77382 13.4443 3.11133 13.4443H8.13965C8.47693 13.4441 8.75 13.1704 8.75 12.833C8.74985 12.4958 8.47684 12.2229 8.13965 12.2227H3.11133ZM3.11133 9.77832C2.77391 9.77832 2.50015 10.0513 2.5 10.3887C2.5 10.7262 2.77382 11 3.11133 11H16.8896C17.2271 10.9999 17.501 10.7261 17.501 10.3887C17.5008 10.0513 17.227 9.77837 16.8896 9.77832H3.11133ZM3.11133 7.33398C2.77391 7.33398 2.50015 7.60695 2.5 7.94434C2.5 8.28184 2.77382 8.55566 3.11133 8.55566H16.8896C17.2271 8.55561 17.501 8.28181 17.501 7.94434C17.5008 7.60698 17.227 7.33403 16.8896 7.33398H3.11133ZM3.11133 4.88867C2.77382 4.88867 2.5 5.16249 2.5 5.5C2.50012 5.83741 2.77389 6.11133 3.11133 6.11133H14.3896C14.727 6.11122 15.0009 5.83734 15.001 5.5C15.001 5.16256 14.7271 4.88878 14.3896 4.88867H3.11133Z" fill="#7C8083"/>
</svg>
