<svg width="18" height="18" viewBox="0 0 18 18" fill="none" xmlns="http://www.w3.org/2000/svg">
<path d="M9 2.25H5.25C3.59315 2.25 2.25 3.59315 2.25 5.25V12.75C2.25 14.4069 3.59315 15.75 5.25 15.75H12.75C14.4069 15.75 15.75 14.4069 15.75 12.75V9" stroke="#1A1A1A" stroke-linecap="round"/>
<path d="M11.46 3.12815L6.01739 8.57153C5.81018 8.77876 5.60298 9.18632 5.56153 9.48336L5.26454 11.5626C5.15403 12.3156 5.68586 12.8406 6.43871 12.737L8.51767 12.4399C8.80776 12.3985 9.21526 12.1912 9.42938 11.984L14.872 6.54062C15.8113 5.60115 16.2534 4.50971 14.872 3.12815C13.4906 1.74658 12.3993 2.18868 11.46 3.12815Z" stroke="#1A1A1A" stroke-miterlimit="10" stroke-linecap="round" stroke-linejoin="round"/>
<path d="M11.25 4.5C11.5552 5.58856 12.4069 6.44028 13.5 6.75" stroke="#1A1A1A" stroke-miterlimit="10" stroke-linecap="square" stroke-linejoin="round"/>
</svg>
