<svg width="70" height="70" viewBox="0 0 70 70" fill="none" xmlns="http://www.w3.org/2000/svg">
<path fill-rule="evenodd" clip-rule="evenodd" d="M70 35C70 54.3298 54.3297 70 34.9998 70C15.6694 70 0 54.3298 0 35C0 15.6702 15.6694 0 34.9998 0C54.3297 0 70 15.6702 70 35Z" fill="#FFEFBE"/>
<path opacity="0.6" fill-rule="evenodd" clip-rule="evenodd" d="M65 35C65 51.5684 51.5683 65 34.9998 65C18.4309 65 5 51.5684 5 35C5 18.4316 18.4309 5 34.9998 5C51.5683 5 65 18.4316 65 35Z" stroke="#777777" stroke-dasharray="2 2"/>
<path d="M38.0078 20.7188L37.5 40.5234H32.5L31.9922 20.7188H38.0078ZM35.0391 49.3516C33.2031 49.3516 31.7188 47.8672 31.7578 46.0703C31.7188 44.2734 33.2031 42.8281 35.0391 42.8281C36.7578 42.8281 38.2812 44.2734 38.2812 46.0703C38.2812 47.8672 36.7578 49.3516 35.0391 49.3516Z" fill="#5F5F5F"/>
</svg>
