<svg width="70" height="70" viewBox="0 0 70 70" fill="none" xmlns="http://www.w3.org/2000/svg">
<path fill-rule="evenodd" clip-rule="evenodd" d="M70 35C70 54.3298 54.3297 70 34.9998 70C15.6694 70 0 54.3298 0 35C0 15.6702 15.6694 0 34.9998 0C54.3297 0 70 15.6702 70 35Z" fill="#E5E5E5"/>
<path opacity="0.6" fill-rule="evenodd" clip-rule="evenodd" d="M65 35C65 51.5684 51.5683 65 34.9998 65C18.4309 65 5 51.5684 5 35C5 18.4316 18.4309 5 34.9998 5C51.5683 5 65 18.4316 65 35Z" stroke="#777777" stroke-dasharray="2 2"/>
<path d="M32.1289 49V27.7891H37.9102V49H32.1289ZM35.0195 25.0156C33.2617 25.0156 31.8555 23.6875 31.8555 22.0859C31.8555 20.4453 33.2617 19.1172 35.0195 19.1172C36.7383 19.1172 38.1445 20.4453 38.1445 22.0859C38.1445 23.6875 36.7383 25.0156 35.0195 25.0156Z" fill="#5F5F5F"/>
</svg>
