<svg width="30" height="30" viewBox="0 0 30 30" fill="none" xmlns="http://www.w3.org/2000/svg">
<g clip-path="url(#clip0_324_3627)">
<circle cx="15" cy="15" r="15" fill="#3F78D2" fill-opacity="0.1"/>
<path d="M22 7H8C7.44772 7 7 7.44772 7 8V12.1172C7 12.6215 7.37554 13.0469 7.87597 13.1095L16.155 14.1444C16.4381 14.1798 16.7228 14.0925 16.9375 13.9047L22.6585 8.89881C22.8755 8.70892 23 8.43459 23 8.14623V8C23 7.44772 22.5523 7 22 7Z" fill="#3F78D2"/>
<path d="M7 14.9805V22.2768C7 22.6762 7.32377 23 7.72315 23C8.01244 23 8.27388 22.8276 8.38784 22.5617L11.2982 15.7709C11.5536 15.1749 11.183 14.4972 10.5434 14.3906L8.1644 13.9941C7.55487 13.8925 7 14.3625 7 14.9805Z" fill="#3F78D2"/>
<path d="M10.5165 23H18.582C19.3253 23 19.8088 22.2177 19.4764 21.5528L16.4433 15.4866C16.2916 15.1832 15.9964 14.9774 15.6593 14.9399L13.3373 14.6819C12.8995 14.6333 12.4813 14.8769 12.3078 15.2819L9.59739 21.6061C9.31459 22.2659 9.79862 23 10.5165 23Z" fill="#3F78D2"/>
<path d="M21.618 23H22C22.5523 23 23 22.5523 23 22V11.99C23 11.133 21.9926 10.673 21.3451 11.2343L17.5867 14.4915C17.2415 14.7907 17.1429 15.2858 17.3472 15.6944L20.7236 22.4472C20.893 22.786 21.2393 23 21.618 23Z" fill="#3F78D2"/>
</g>
<defs>
<clipPath id="clip0_324_3627">
<rect width="30" height="30" fill="white"/>
</clipPath>
</defs>
</svg>
