<svg width="16" height="20" viewBox="0 0 16 20" fill="none" xmlns="http://www.w3.org/2000/svg">
<path fill-rule="evenodd" clip-rule="evenodd" d="M8.00014 1.00272C4.24161 0.89862 1.10919 3.79118 1.00265 7.46341C0.999646 7.56788 0.999271 7.67235 1.00115 7.77682C1.00115 13.4494 7.48432 18.6975 7.75705 18.9134C7.89473 19.0289 8.09805 19.0289 8.23573 18.9134C8.52346 18.6616 14.9988 12.8882 14.9988 7.77682C15.0697 4.10385 12.0798 1.07017 8.32051 1.00126C8.2136 0.999425 8.10668 0.999792 8.00014 1.00272Z" fill="#F06800"/>
<path d="M8.00014 1.00272C4.24161 0.89862 1.10919 3.79118 1.00265 7.46341C0.999646 7.56788 0.999271 7.67235 1.00115 7.77682C1.00115 13.4494 7.48432 18.6975 7.75705 18.9134C7.89473 19.0289 8.09805 19.0289 8.23573 18.9134C8.52346 18.6616 14.9988 12.8882 14.9988 7.77682C15.0697 4.10385 12.0798 1.07017 8.32051 1.00126C8.2136 0.999425 8.10668 0.999792 8.00014 1.00272" stroke="white" stroke-width="0.5"/>
<path fill-rule="evenodd" clip-rule="evenodd" d="M8.00017 11C6.34325 11 5 9.65675 5 8.00017C5 6.34325 6.34325 5 8.00017 5C9.65709 5 11 6.34325 11 8.00017C11 9.65675 9.65709 11 8.00017 11Z" fill="white"/>
</svg>
