<svg width="30" height="30" viewBox="0 0 30 30" fill="none" xmlns="http://www.w3.org/2000/svg">
<g clip-path="url(#clip0_324_3632)">
<circle cx="15" cy="15" r="15" fill="#6098F3" fill-opacity="0.1"/>
<path d="M6 12.053C6 11.3257 6.7517 10.8417 7.4138 11.1426L13.6638 13.9835C14.0208 14.1458 14.25 14.5017 14.25 14.8939V23.1969C14.25 23.9242 13.4983 24.4082 12.8362 24.1072L6.5862 21.2664C6.2292 21.1041 6 20.7481 6 20.356V12.053Z" fill="#6098F3"/>
<path d="M24 12.053C24 11.3257 23.2483 10.8417 22.5862 11.1426L16.3362 13.9835C15.9792 14.1458 15.75 14.5017 15.75 14.8939V23.1969C15.75 23.9242 16.5017 24.4082 17.1638 24.1072L23.4138 21.2664C23.7708 21.1041 24 20.7481 24 20.356V12.053Z" fill="#6098F3"/>
<path d="M14.579 5.75316C14.8028 5.67042 15.0488 5.67042 15.2726 5.75316L21.449 8.03669C22.3031 8.35248 22.325 9.5526 21.4829 9.89931L15.3065 12.4424C15.0626 12.5428 14.7889 12.5428 14.545 12.4424L8.36863 9.89931C7.52656 9.5526 7.54843 8.35248 8.40258 8.03669L14.579 5.75316Z" fill="#6098F3"/>
</g>
<defs>
<clipPath id="clip0_324_3632">
<rect width="30" height="30" fill="white"/>
</clipPath>
</defs>
</svg>
