<svg width="80" height="80" viewBox="0 0 80 80" fill="none" xmlns="http://www.w3.org/2000/svg">
<path fill-rule="evenodd" clip-rule="evenodd" d="M80 40C80 62.0912 62.0911 80 39.9997 80C17.9079 80 0 62.0912 0 40C0 17.9088 17.9079 0 39.9997 0C62.0911 0 80 17.9088 80 40Z" fill="#E5E5E5"/>
<path opacity="0.6" fill-rule="evenodd" clip-rule="evenodd" d="M75 40C75 59.3298 59.3297 75 39.9998 75C20.6694 75 5 59.3298 5 40C5 20.6702 20.6694 5 39.9998 5C59.3297 5 75 20.6702 75 40Z" stroke="#777777" stroke-dasharray="2 2"/>
<path d="M30.6232 57.2749L48.9812 48.7144C49.9029 48.2846 50.3017 47.189 49.8719 46.2673L39.0304 23.0177L31.689 20.3457L16.6689 27.3497C15.7472 27.7795 15.3484 28.8751 15.7782 29.7968L28.1761 56.3842C28.6059 57.3059 29.7015 57.7047 30.6232 57.2749Z" fill="#D7D7DD"/>
<path d="M54.4645 46.1486L42.0505 40.0927C41.1365 39.6468 40.757 38.5443 41.2029 37.6303L47.478 24.767L52.5297 23.62L62.97 28.7131C63.884 29.159 64.2635 30.2615 63.8176 31.1755L56.9269 45.3009C56.481 46.2149 55.3785 46.5945 54.4645 46.1486Z" fill="#B9B9BF"/>
<path d="M54.165 48.0324L40.4716 46.2242C39.4633 46.091 38.7539 45.1657 38.8871 44.1575L40.7608 29.9684L45.1883 27.2792L56.7047 28.7999C57.7129 28.9331 58.4223 29.8584 58.2892 30.8666L56.2317 46.4479C56.0985 47.4561 55.1732 48.1655 54.165 48.0324Z" fill="#D7D7DD"/>
<path fill-rule="evenodd" clip-rule="evenodd" d="M50.4272 53.35H30.364C28.9518 53.35 27.7959 52.1362 27.7959 50.6527V20.6967C27.7959 19.2132 28.9518 18 30.364 18H50.4272C51.84 18 52.9959 19.2132 52.9959 20.6967V50.6527C52.9959 52.1362 51.84 53.35 50.4272 53.35Z" fill="#87878F"/>
<path fill-rule="evenodd" clip-rule="evenodd" d="M48.6057 51.6004H27.9851C26.5337 51.6004 25.3457 50.4947 25.3457 49.1434V21.8568C25.3457 20.5055 26.5337 19.4004 27.9851 19.4004H48.6057C50.0577 19.4004 51.2457 20.5055 51.2457 21.8568V49.1434C51.2457 50.4947 50.0577 51.6004 48.6057 51.6004Z" fill="white"/>
<path fill-rule="evenodd" clip-rule="evenodd" d="M45.4162 30.4703H29.9664C29.5252 30.4703 29.1641 30.1554 29.1641 29.7706C29.1641 29.3853 29.5252 29.0703 29.9664 29.0703H45.4162C45.8574 29.0703 46.2186 29.3853 46.2186 29.7706C46.2186 30.1554 45.8574 30.4703 45.4162 30.4703Z" fill="#87878F"/>
<path fill-rule="evenodd" clip-rule="evenodd" d="M41.5351 25.8883H29.7748C29.439 25.8883 29.1641 25.5733 29.1641 25.1885C29.1641 24.8032 29.439 24.4883 29.7748 24.4883H41.5351C41.871 24.4883 42.1459 24.8032 42.1459 25.1885C42.1459 25.5733 41.871 25.8883 41.5351 25.8883Z" fill="#87878F"/>
<path fill-rule="evenodd" clip-rule="evenodd" d="M45.4162 35.0523H29.9664C29.5252 35.0523 29.1641 34.7374 29.1641 34.3526C29.1641 33.9673 29.5252 33.6523 29.9664 33.6523H45.4162C45.8574 33.6523 46.2186 33.9673 46.2186 34.3526C46.2186 34.7374 45.8574 35.0523 45.4162 35.0523Z" fill="#87878F"/>
<path fill-rule="evenodd" clip-rule="evenodd" d="M45.4162 39.6334H29.9664C29.5252 39.6334 29.1641 39.3184 29.1641 38.9337C29.1641 38.5489 29.5252 38.2334 29.9664 38.2334H45.4162C45.8574 38.2334 46.2186 38.5489 46.2186 38.9337C46.2186 39.3184 45.8574 39.6334 45.4162 39.6334Z" fill="#87878F"/>
<path fill-rule="evenodd" clip-rule="evenodd" d="M45.4162 44.2154H29.9664C29.5252 44.2154 29.1641 43.9005 29.1641 43.5157C29.1641 43.1304 29.5252 42.8154 29.9664 42.8154H45.4162C45.8574 42.8154 46.2186 43.1304 46.2186 43.5157C46.2186 43.9005 45.8574 44.2154 45.4162 44.2154Z" fill="#CCCCCC"/>
<path d="M60.3284 44.8903L57.8883 62.0086C57.7663 62.8644 57.0272 63.5004 56.1552 63.5004H21.2942C20.4222 63.5004 19.6832 62.8644 19.5612 62.0086L16.2636 38.8776C16.1149 37.8334 16.9325 36.9004 17.9967 36.9004H28.7625C29.6345 36.9004 30.3736 37.5364 30.4956 38.392L30.9277 41.4212C31.0497 42.277 31.7887 42.9131 32.6608 42.9131H58.5957C59.6595 42.9131 60.4773 43.8461 60.3286 44.8903H60.3284Z" fill="url(#paint0_linear_150_5189)"/>
<defs>
<linearGradient id="paint0_linear_150_5189" x1="38.296" y1="36.9004" x2="38.296" y2="63.5004" gradientUnits="userSpaceOnUse">
<stop stop-color="#D7D7D7"/>
<stop offset="0.927" stop-color="#C0C1C3"/>
</linearGradient>
</defs>
</svg>
