<svg width="70" height="70" viewBox="0 0 70 70" fill="none" xmlns="http://www.w3.org/2000/svg">
<path fill-rule="evenodd" clip-rule="evenodd" d="M70 35C70 54.3298 54.3297 70 34.9998 70C15.6694 70 0 54.3298 0 35C0 15.6702 15.6694 0 34.9998 0C54.3297 0 70 15.6702 70 35Z" fill="#C6D8F6"/>
<path opacity="0.6" fill-rule="evenodd" clip-rule="evenodd" d="M65 35C65 51.5684 51.5683 65 34.9998 65C18.4309 65 5 51.5684 5 35C5 18.4316 18.4309 5 34.9998 5C51.5683 5 65 18.4316 65 35Z" stroke="#777777" stroke-dasharray="2 2"/>
<path d="M31.5039 40.0938C31.543 35.25 32.832 33.7266 35.1758 32.2812C36.8555 31.1875 38.1445 29.9766 38.1445 28.1797C38.1445 26.2266 36.6211 24.9375 34.7461 24.9375C32.9102 24.9375 31.2305 26.1484 31.1523 28.4531H25.6055C25.7227 22.9453 29.7852 20.3281 34.7852 20.3281C40.2148 20.3281 44.082 23.1797 44.082 27.9844C44.082 31.1875 42.4414 33.2578 39.8633 34.7812C37.6758 36.1094 36.6992 37.3594 36.6602 40.0938V40.5234H31.5039V40.0938ZM34.1992 49.3516C32.3633 49.3516 30.8789 47.8672 30.918 46.0703C30.8789 44.2734 32.3633 42.8281 34.1992 42.8281C35.918 42.8281 37.4414 44.2734 37.4414 46.0703C37.4414 47.8672 35.918 49.3516 34.1992 49.3516Z" fill="#5F5F5F"/>
</svg>
