<svg width="125" height="125" viewBox="0 0 125 125" fill="none" xmlns="http://www.w3.org/2000/svg">
<circle cx="62.5" cy="63" r="52.5" fill="black" fill-opacity="0.2"/>
<path fill-rule="evenodd" clip-rule="evenodd" d="M82.0054 91H42.9935C40.2476 91 38 88.8368 38 86.1929V32.806C38 30.1622 40.2476 28 42.9935 28H82.0054C84.7524 28 87 30.1622 87 32.806V86.1929C87 88.8368 84.7524 91 82.0054 91Z" fill="white" stroke="#B2B2BF" stroke-width="0.5" stroke-dasharray="1 1"/>
<path d="M59.1523 64.6514C59.1865 60.1738 60.5195 58.8066 62.7754 57.4053C64.2109 56.5166 65.3047 55.2861 65.3047 53.4746C65.3047 51.3213 63.6641 49.9883 61.6133 49.9883C59.7676 49.9883 57.9902 51.1162 57.8193 53.6455H54.1279C54.2646 49.3047 57.5459 46.9121 61.6133 46.9121C66.0566 46.9121 69.0303 49.5781 69.0303 53.4746C69.0303 56.209 67.7314 58.0547 65.5439 59.3877C63.4932 60.6182 62.707 61.8828 62.6387 64.6514V64.8564H59.1523V64.6514ZM61.0322 72.2393C59.6992 72.2393 58.5713 71.1455 58.6055 69.8125C58.5713 68.4795 59.6992 67.3857 61.0322 67.3857C62.3311 67.3857 63.459 68.4795 63.459 69.8125C63.459 71.1455 62.3311 72.2393 61.0322 72.2393Z" fill="#999999"/>
<path fill-rule="evenodd" clip-rule="evenodd" d="M84.5 98.75C84.5 99.7165 74.6502 100.5 62.5 100.5C50.3496 100.5 40.5 99.7165 40.5 98.75C40.5 97.7838 50.3496 97 62.5 97C74.6502 97 84.5 97.7838 84.5 98.75Z" fill="#5F5F5F" fill-opacity="0.4"/>
<path fill-rule="evenodd" clip-rule="evenodd" d="M93.5204 48.4741H83.5535C82.6134 48.4741 82.6134 48.481 82.1635 48.8136C81.7127 49.1463 76.5695 52.6509 76.5695 52.6509V48.4741H76.3287C73.575 48.4741 71.3491 46.3988 71.3491 43.8141V30.18C71.3491 27.5954 73.5804 25.5 76.3287 25.5H93.5204C96.268 25.5 98.5 27.5954 98.5 30.18V43.8141C98.5 46.3988 96.268 48.4741 93.5204 48.4741Z" fill="#5F5F5F"/>
<path fill-rule="evenodd" clip-rule="evenodd" d="M78.7025 34.9469C79.863 34.9469 80.8016 35.8848 80.8016 37.0461C80.8016 38.2073 79.863 39.1452 78.7025 39.1452C77.5412 39.1452 76.6025 38.2073 76.6025 37.0461C76.6025 35.8848 77.5412 34.9469 78.7025 34.9469Z" fill="white"/>
<path fill-rule="evenodd" clip-rule="evenodd" d="M85.0015 34.9469C86.1628 34.9469 87.1006 35.8848 87.1006 37.0461C87.1006 38.2073 86.1628 39.1452 85.0015 39.1452C83.8402 39.1452 82.9023 38.2073 82.9023 37.0461C82.9023 35.8848 83.8402 34.9469 85.0015 34.9469Z" fill="white"/>
<path fill-rule="evenodd" clip-rule="evenodd" d="M91.2984 34.9469C92.4597 34.9469 93.3975 35.8848 93.3975 37.0461C93.3975 38.2073 92.4597 39.1452 91.2984 39.1452C90.1371 39.1452 89.1992 38.2073 89.1992 37.0461C89.1992 35.8848 90.1371 34.9469 91.2984 34.9469Z" fill="white"/>
</svg>
