<svg width="18" height="18" viewBox="0 0 18 18" fill="none" xmlns="http://www.w3.org/2000/svg">
<g clip-path="url(#clip0_993_33794)">
<circle cx="9" cy="9" r="8.5" fill="#FDFCF4" stroke="#555555"/>
<path d="M7.89404 10.8506C7.90869 8.93164 8.47998 8.3457 9.44678 7.74512C10.062 7.36426 10.5308 6.83691 10.5308 6.06055C10.5308 5.1377 9.82764 4.56641 8.94873 4.56641C8.15771 4.56641 7.396 5.0498 7.32275 6.13379H5.74072C5.79932 4.27344 7.20557 3.24805 8.94873 3.24805C10.853 3.24805 12.1274 4.39062 12.1274 6.06055C12.1274 7.23242 11.5708 8.02344 10.6333 8.59473C9.75439 9.12207 9.41748 9.66406 9.38818 10.8506V10.9385H7.89404V10.8506ZM8.69971 14.1025C8.12842 14.1025 7.64502 13.6338 7.65967 13.0625C7.64502 12.4912 8.12842 12.0225 8.69971 12.0225C9.25635 12.0225 9.73975 12.4912 9.73975 13.0625C9.73975 13.6338 9.25635 14.1025 8.69971 14.1025Z" fill="#555555"/>
</g>
<defs>
<clipPath id="clip0_993_33794">
<rect width="18" height="18" fill="white"/>
</clipPath>
</defs>
</svg>
