<svg width="30" height="30" viewBox="0 0 30 30" fill="none" xmlns="http://www.w3.org/2000/svg">
<g clip-path="url(#clip0_324_3644)">
<circle cx="15" cy="15" r="15" fill="#68BBFF" fill-opacity="0.1"/>
<ellipse cx="15" cy="9.5" rx="9" ry="4.5" fill="#68BBFF"/>
<path fill-rule="evenodd" clip-rule="evenodd" d="M6 12C6.27614 12 6.49467 12.2302 6.59185 12.4887C6.68108 12.7261 6.83735 12.9681 7.06934 13.2119C7.46562 13.6283 8.06289 14.0262 8.83887 14.3711C10.3899 15.0604 12.5679 15.5 15 15.5C17.4321 15.5 19.6101 15.0604 21.1611 14.3711C21.9371 14.0262 22.5344 13.6283 22.9307 13.2119C23.1626 12.9681 23.3189 12.7261 23.4082 12.4887C23.5053 12.2302 23.7239 12 24 12C24.2761 12 24.5 12.2239 24.5 12.5V15C24.5 15.7148 24.172 16.3582 23.6553 16.9014C23.1408 17.4419 22.4198 17.9063 21.5674 18.2852C19.8611 19.0435 17.5385 19.5 15 19.5C12.4615 19.5 10.1389 19.0435 8.43262 18.2852C7.58025 17.9063 6.85916 17.4419 6.34473 16.9014C5.82795 16.3582 5.5 15.7148 5.5 15V12.5C5.5 12.2239 5.72386 12 6 12Z" fill="#68BBFF"/>
<path fill-rule="evenodd" clip-rule="evenodd" d="M6 17C6.27614 17 6.49467 17.2302 6.59185 17.4887C6.68108 17.7261 6.83735 17.9681 7.06934 18.2119C7.46562 18.6283 8.06289 19.0262 8.83887 19.3711C10.3899 20.0604 12.5679 20.5 15 20.5C17.4321 20.5 19.6101 20.0604 21.1611 19.3711C21.9371 19.0262 22.5344 18.6283 22.9307 18.2119C23.1626 17.9681 23.3189 17.7261 23.4082 17.4887C23.5053 17.2302 23.7239 17 24 17C24.2761 17 24.5 17.2239 24.5 17.5V20C24.5 20.7148 24.172 21.3582 23.6553 21.9014C23.1408 22.4419 22.4198 22.9063 21.5674 23.2852C19.8611 24.0435 17.5385 24.5 15 24.5C12.4615 24.5 10.1389 24.0435 8.43262 23.2852C7.58025 22.9063 6.85916 22.4419 6.34473 21.9014C5.82795 21.3582 5.5 20.7148 5.5 20V17.5C5.5 17.2239 5.72386 17 6 17Z" fill="#68BBFF"/>
</g>
<defs>
<clipPath id="clip0_324_3644">
<rect width="30" height="30" fill="white"/>
</clipPath>
</defs>
</svg>
