<svg width="20" height="100" viewBox="0 0 20 100" fill="none" xmlns="http://www.w3.org/2000/svg">
<rect y="11" width="20" height="4" rx="2" fill="#FF421A"/>
<rect x="2" y="15" width="16" height="70" fill="url(#paint0_linear_302_30299)"/>
<path d="M0.705566 8V1.63672H2.02393V4.27344H4.78369V1.63672H6.11084V8H4.78369V5.36328H2.02393V8H0.705566ZM7.15674 8V3.22754H8.45752V8H7.15674ZM7.80713 2.60352C7.41162 2.60352 7.09521 2.30469 7.09521 1.94434C7.09521 1.5752 7.41162 1.27637 7.80713 1.27637C8.19385 1.27637 8.51025 1.5752 8.51025 1.94434C8.51025 2.30469 8.19385 2.60352 7.80713 2.60352ZM11.6128 9.88965C10.2944 9.88965 9.48584 9.30078 9.40674 8.39551H10.6899C10.7603 8.77344 11.1206 8.94922 11.6392 8.94922C12.2456 8.94922 12.6499 8.69434 12.6499 8.02637V7.15625H12.5884C12.4126 7.54297 11.9907 7.92969 11.2261 7.92969C10.145 7.92969 9.28369 7.17383 9.28369 5.58301C9.28369 3.96582 10.1714 3.16602 11.2261 3.16602C12.0259 3.16602 12.4126 3.64062 12.5884 4.02734H12.6411V3.22754H13.9331V8.05273C13.9331 9.26562 12.9663 9.88965 11.6128 9.88965ZM11.6304 6.9541C12.2808 6.9541 12.6499 6.44434 12.6499 5.60059C12.6499 4.74805 12.2808 4.20312 11.6304 4.20312C10.9712 4.20312 10.6196 4.77441 10.6196 5.60059C10.6196 6.42676 10.9712 6.9541 11.6304 6.9541ZM16.2446 5.24023V8H14.9438V1.63672H16.2095V4.0625H16.2622C16.4819 3.50879 16.9653 3.16602 17.686 3.16602C18.6792 3.16602 19.3384 3.83398 19.3384 4.95898V8H18.0376V5.1875C18.0376 4.59863 17.7212 4.24707 17.1763 4.24707C16.6313 4.24707 16.2446 4.60742 16.2446 5.24023Z" fill="#FF421A"/>
<path d="M1.7998 99V92.6367H3.11816V97.9102H5.86035V99H1.7998ZM8.83105 99.0967C7.38965 99.0967 6.49316 98.1035 6.49316 96.627C6.49316 95.1504 7.38965 94.166 8.83105 94.166C10.2725 94.166 11.1777 95.1504 11.1777 96.627C11.1777 98.1035 10.2725 99.0967 8.83105 99.0967ZM8.83984 98.0859C9.50781 98.0859 9.85059 97.4619 9.85059 96.627C9.85059 95.7832 9.50781 95.1592 8.83984 95.1592C8.16309 95.1592 7.81152 95.7832 7.81152 96.627C7.81152 97.4619 8.16309 98.0859 8.83984 98.0859ZM12.8125 99L11.5117 94.2275H12.8301L13.5771 97.4531H13.6211L14.4033 94.2275H15.6953L16.4863 97.4355H16.5303L17.2686 94.2275H18.5869L17.2773 99H15.9062L15.0801 95.9678H15.0186L14.1924 99H12.8125Z" fill="#87CEF8"/>
<rect y="85" width="20" height="4" rx="2" fill="#87CEF8"/>
<defs>
<linearGradient id="paint0_linear_302_30299" x1="10" y1="15" x2="10" y2="85" gradientUnits="userSpaceOnUse">
<stop stop-color="#FF421A"/>
<stop offset="0.125" stop-color="#FF6E21"/>
<stop offset="0.25" stop-color="#FF8E26"/>
<stop offset="0.375" stop-color="#FED433"/>
<stop offset="0.5" stop-color="#FEFD3D"/>
<stop offset="0.625" stop-color="#D3EE64"/>
<stop offset="0.75" stop-color="#BFE785"/>
<stop offset="0.875" stop-color="#9ED8C8"/>
<stop offset="1" stop-color="#87CEF8"/>
</linearGradient>
</defs>
</svg>
