<svg width="26" height="33" viewBox="0 0 26 33" fill="none" xmlns="http://www.w3.org/2000/svg">
<path fill-rule="evenodd" clip-rule="evenodd" d="M13.0002 1.00469C6.55705 0.825401 1.18718 5.80702 1.00454 12.1314C0.999393 12.3114 0.99875 12.4913 1.00197 12.6712C1.00197 22.4406 12.116 31.479 12.5835 31.8509C12.8195 32.0497 13.1681 32.0497 13.4041 31.8509C13.8974 31.4171 24.9979 21.4741 24.9979 12.6712C25.1194 6.34553 19.9939 1.12085 13.5494 1.00217C13.3662 0.99901 13.1829 0.999641 13.0002 1.00469Z" fill="#00A068"/>
<path d="M13.0002 1.00469C6.55705 0.825401 1.18718 5.80702 1.00454 12.1314C0.999393 12.3114 0.99875 12.4913 1.00197 12.6712C1.00197 22.4406 12.116 31.479 12.5835 31.8509C12.8195 32.0497 13.1681 32.0497 13.4041 31.8509C13.8974 31.4171 24.9979 21.4741 24.9979 12.6712C25.1194 6.34553 19.9939 1.12085 13.5494 1.00217C13.3662 0.99901 13.1829 0.999641 13.0002 1.00469" stroke="white"/>
<path fill-rule="evenodd" clip-rule="evenodd" d="M13.0003 17C10.2388 17 8 14.7612 8 12.0003C8 9.23876 10.2388 7 13.0003 7C15.7618 7 18 9.23876 18 12.0003C18 14.7612 15.7618 17 13.0003 17Z" fill="white"/>
</svg>
