<svg width="250" height="250" viewBox="0 0 250 250" fill="none" xmlns="http://www.w3.org/2000/svg">
<circle cx="125" cy="125" r="105" fill="black" fill-opacity="0.2"/>
<path fill-rule="evenodd" clip-rule="evenodd" d="M164.011 182H85.9869C80.4952 182 76 177.674 76 172.386V65.6121C76 60.3243 80.4952 56 85.9869 56H164.011C169.505 56 174 60.3243 174 65.6121V172.386C174 177.674 169.505 182 164.011 182Z" fill="white" stroke="#B2B2BF" stroke-dasharray="2 2"/>
<path d="M118.305 129.303C118.373 120.348 121.039 117.613 125.551 114.811C128.422 113.033 130.609 110.572 130.609 106.949C130.609 102.643 127.328 99.9766 123.227 99.9766C119.535 99.9766 115.98 102.232 115.639 107.291H108.256C108.529 98.6094 115.092 93.8242 123.227 93.8242C132.113 93.8242 138.061 99.1562 138.061 106.949C138.061 112.418 135.463 116.109 131.088 118.775C126.986 121.236 125.414 123.766 125.277 129.303V129.713H118.305V129.303ZM122.064 144.479C119.398 144.479 117.143 142.291 117.211 139.625C117.143 136.959 119.398 134.771 122.064 134.771C124.662 134.771 126.918 136.959 126.918 139.625C126.918 142.291 124.662 144.479 122.064 144.479Z" fill="#999999"/>
<path fill-rule="evenodd" clip-rule="evenodd" d="M169 197.5C169 199.433 149.3 201 125 201C100.699 201 81 199.433 81 197.5C81 195.568 100.699 194 125 194C149.3 194 169 195.568 169 197.5Z" fill="#5F5F5F" fill-opacity="0.4"/>
<path fill-rule="evenodd" clip-rule="evenodd" d="M187.041 96.9481H167.107C165.227 96.9481 165.227 96.962 164.327 97.6273C163.425 98.2925 153.139 105.302 153.139 105.302V96.9481H152.657C147.15 96.9481 142.698 92.7975 142.698 87.6282V60.36C142.698 55.1907 147.161 51 152.657 51H187.041C192.536 51 197 55.1907 197 60.36V87.6282C197 92.7975 192.536 96.9481 187.041 96.9481Z" fill="#5F5F5F"/>
<path fill-rule="evenodd" clip-rule="evenodd" d="M157.406 69.8936C159.727 69.8936 161.604 71.7693 161.604 74.0919C161.604 76.4144 159.727 78.2902 157.406 78.2902C155.083 78.2902 153.206 76.4144 153.206 74.0919C153.206 71.7693 155.083 69.8936 157.406 69.8936Z" fill="white"/>
<path fill-rule="evenodd" clip-rule="evenodd" d="M170.002 69.8936C172.325 69.8936 174.2 71.7693 174.2 74.0919C174.2 76.4144 172.325 78.2902 170.002 78.2902C167.679 78.2902 165.804 76.4144 165.804 74.0919C165.804 71.7693 167.679 69.8936 170.002 69.8936Z" fill="white"/>
<path fill-rule="evenodd" clip-rule="evenodd" d="M182.598 69.8936C184.92 69.8936 186.796 71.7693 186.796 74.0919C186.796 76.4144 184.92 78.2902 182.598 78.2902C180.275 78.2902 178.399 76.4144 178.399 74.0919C178.399 71.7693 180.275 69.8936 182.598 69.8936Z" fill="white"/>
</svg>
