<svg width="60" height="45" viewBox="0 0 60 45" fill="none" xmlns="http://www.w3.org/2000/svg">
<path d="M1.5 0C1.10218 0 0.720644 0.158035 0.43934 0.43934C0.158035 0.720644 0 1.10218 0 1.5L0 43.5C0 43.8978 0.158035 44.2794 0.43934 44.5607C0.720644 44.842 1.10218 45 1.5 45H58.5C58.8978 45 59.2794 44.842 59.5607 44.5607C59.842 44.2794 60 43.8978 60 43.5V1.5C60 1.10218 59.842 0.720644 59.5607 0.43934C59.2794 0.158035 58.8978 0 58.5 0H1.5ZM3 3H30.192L30.1722 6.4254L20.1642 22.9896L3 30.9552V3ZM31.9932 3H57V14.5476L41.4108 19.5858L31.9734 6.3918L31.9932 3ZM31.1346 8.3142L40.0056 20.715L36.4884 27.3786L30.5286 28.2162L22.0404 23.3658L31.1346 8.3142ZM57 16.4388V42H52.6608L38.1822 28.0278L41.6862 21.3876L57 16.4388ZM20.7504 24.702L29.4948 29.6988L30.5802 42H3V32.9388L20.7504 24.702ZM36.762 29.1576L50.0682 42H32.388L31.32 29.9226L36.762 29.1576Z" fill="black"/>
<path d="M36.8195 33.738C36.0239 33.738 35.2608 34.054 34.6982 34.6166C34.1356 35.1793 33.8195 35.9423 33.8195 36.738C33.8195 37.5336 34.1356 38.2967 34.6982 38.8593C35.2608 39.4219 36.0239 39.738 36.8195 39.738C37.6152 39.738 38.3782 39.4219 38.9408 38.8593C39.5035 38.2967 39.8195 37.5336 39.8195 36.738C39.8195 35.9423 39.5035 35.1793 38.9408 34.6166C38.3782 34.054 37.6152 33.738 36.8195 33.738ZM19.9415 27.516C18.1911 27.516 16.5124 28.205 15.2746 29.4315C14.0369 30.658 13.3415 32.3215 13.3415 34.056C13.3418 35.7903 14.0373 37.4534 15.275 38.6797C16.5128 39.9059 18.1913 40.5948 19.9415 40.5948C21.6917 40.5948 23.3703 39.9059 24.608 38.6797C25.8457 37.4534 26.5412 35.7903 26.5415 34.056C26.5415 32.3215 25.8462 30.658 24.6084 29.4315C23.3707 28.205 21.692 27.516 19.9415 27.516ZM49.9145 21.3552C48.3232 21.3552 46.7971 21.9815 45.6719 23.0964C44.5467 24.2112 43.9145 25.7233 43.9145 27.3C43.9144 28.0807 44.0696 28.8538 44.3711 29.5751C44.6726 30.2965 45.1145 30.9519 45.6717 31.504C46.2288 32.0561 46.8903 32.494 47.6183 32.7928C48.3463 33.0916 49.1265 33.2454 49.9145 33.2454C50.7025 33.2454 51.4828 33.0916 52.2108 32.7928C52.9388 32.494 53.6002 32.0561 54.1574 31.504C54.7145 30.9519 55.1565 30.2965 55.458 29.5751C55.7595 28.8538 55.9146 28.0807 55.9145 27.3C55.9145 25.7233 55.2824 24.2112 54.1572 23.0964C53.0319 21.9815 51.5058 21.3552 49.9145 21.3552ZM45.3089 4.98657C44.1166 4.98815 42.9736 5.4585 42.131 6.29435C41.2884 7.1302 40.8151 8.26321 40.8149 9.44457C40.8149 10.6271 41.289 11.7611 42.1329 12.5973C42.9769 13.4334 44.1215 13.9032 45.3149 13.9032C46.5084 13.9032 47.653 13.4334 48.4969 12.5973C49.3408 11.7611 49.8149 10.6271 49.8149 9.44457C49.8148 8.26218 49.3406 7.12827 48.4967 6.29225C47.6528 5.45623 46.5083 4.98657 45.3149 4.98657C45.3129 4.98657 45.3109 4.98657 45.3089 4.98657ZM31.9631 16.8984C31.1675 16.8984 30.4044 17.2144 29.8418 17.7771C29.2792 18.3397 28.9631 19.1027 28.9631 19.8984C28.9631 20.694 29.2792 21.4571 29.8418 22.0197C30.4044 22.5823 31.1675 22.8984 31.9631 22.8984C32.7588 22.8984 33.5218 22.5823 34.0844 22.0197C34.6471 21.4571 34.9631 20.694 34.9631 19.8984C34.9631 19.1027 34.6471 18.3397 34.0844 17.7771C33.5218 17.2144 32.7588 16.8984 31.9631 16.8984ZM12.6947 5.25417C11.631 5.25417 10.5776 5.46178 9.59485 5.86514C8.61207 6.2685 7.71911 6.85972 6.96695 7.60503C6.21479 8.35034 5.61816 9.23514 5.21113 10.2089C4.8041 11.1827 4.59465 12.2264 4.59473 13.2804C4.59465 14.3344 4.8041 15.378 5.21113 16.3518C5.61816 17.3256 6.21479 18.2104 6.96695 18.9557C7.71911 19.701 8.61207 20.2922 9.59485 20.6956C10.5776 21.099 11.631 21.3066 12.6947 21.3066C13.7585 21.3066 14.8118 21.099 15.7946 20.6956C16.7774 20.2922 17.6703 19.701 18.4225 18.9557C19.1747 18.2104 19.7713 17.3256 20.1783 16.3518C20.5854 15.378 20.7948 14.3344 20.7947 13.2804C20.7948 12.2264 20.5854 11.1827 20.1783 10.2089C19.7713 9.23514 19.1747 8.35034 18.4225 7.60503C17.6703 6.85972 16.7774 6.2685 15.7946 5.86514C14.8118 5.46178 13.7585 5.25417 12.6947 5.25417Z" fill="black"/>
<path d="M12.6947 5.25415C11.631 5.25415 10.5776 5.46176 9.59485 5.86512C8.61207 6.26848 7.71911 6.8597 6.96695 7.60501C6.21479 8.35032 5.61816 9.23512 5.21113 10.2089C4.8041 11.1827 4.59465 12.2264 4.59473 13.2803C4.59465 14.3343 4.8041 15.378 5.21113 16.3518C5.61816 17.3256 6.21479 18.2104 6.96695 18.9557C7.71911 19.701 8.61207 20.2922 9.59485 20.6956C10.5776 21.0989 11.631 21.3065 12.6947 21.3065C13.7585 21.3065 14.8118 21.0989 15.7946 20.6956C16.7774 20.2922 17.6703 19.701 18.4225 18.9557C19.1747 18.2104 19.7713 17.3256 20.1783 16.3518C20.5854 15.378 20.7948 14.3343 20.7947 13.2803C20.7948 12.2264 20.5854 11.1827 20.1783 10.2089C19.7713 9.23512 19.1747 8.35032 18.4225 7.60501C17.6703 6.8597 16.7774 6.26848 15.7946 5.86512C14.8118 5.46176 13.7585 5.25415 12.6947 5.25415Z" fill="#403DFF"/>
</svg>
